<?xml version="1.0" standalone="no"?>
<!DOCTYPE svg PUBLIC "-//W3C//DTD SVG 20010904//EN"
 "http://www.w3.org/TR/2001/REC-SVG-20010904/DTD/svg10.dtd">
<svg version="1.0" xmlns="http://www.w3.org/2000/svg"
 width="448.000000pt" height="626.000000pt" viewBox="0 0 448.000000 626.000000"
 preserveAspectRatio="xMidYMid meet">

<g transform="translate(0.000000,626.000000) scale(0.100000,-0.100000)"
fill="#000000" stroke="none">
<path d="M3630 6115 c-69 -18 -746 -190 -1505 -381 l-1380 -348 -220 -6 c-201
-5 -224 -7 -261 -27 -67 -36 -101 -70 -133 -135 l-31 -61 0 -2417 0 -2417 31
-61 c34 -69 89 -120 159 -149 43 -17 118 -18 1760 -18 l1715 0 80 23 c255 74
440 263 505 517 20 77 20 108 20 2097 0 2254 5 2085 -71 2245 -64 135 -177
253 -306 321 l-53 27 0 356 c0 353 0 356 -23 390 -25 38 -98 80 -137 78 -14
-1 -81 -16 -150 -34z m148 -739 c-2 -1 -540 1 -1196 4 l-1194 5 1054 265 c579
145 1116 280 1193 300 l140 35 3 -304 c1 -167 1 -304 0 -305z m-6 -167 c200
-42 371 -206 422 -405 14 -56 16 -269 16 -2069 0 -1799 -2 -2013 -16 -2069
-47 -183 -197 -334 -389 -393 -57 -17 -138 -18 -1755 -18 -1618 0 -1697 1
-1723 18 -16 10 -37 32 -47 50 -20 31 -20 71 -20 2422 0 2186 1 2393 16 2414
9 12 30 31 48 42 30 18 75 19 1713 19 1197 0 1697 -3 1735 -11z"/>
<path d="M1985 4608 c-223 -226 -1188 -1209 -1390 -1416 -103 -106 -110 -115
-110 -153 0 -33 6 -46 29 -65 19 -17 35 -23 49 -18 12 3 60 44 107 90 47 46
88 84 92 84 4 0 8 -504 10 -1120 2 -886 6 -1122 16 -1132 22 -22 235 -26 1442
-26 1207 0 1420 4 1442 26 10 10 14 246 16 1132 2 616 6 1120 10 1120 4 0 45
-38 92 -84 47 -46 95 -87 107 -90 31 -10 72 30 80 76 6 42 11 37 -293 348
l-132 135 -4 548 -4 547 -22 23 -23 22 -394 0 c-365 0 -396 -1 -412 -18 -14
-14 -19 -38 -21 -117 -2 -55 -6 -100 -9 -100 -2 0 -95 92 -206 205 -156 158
-208 205 -227 205 -19 0 -76 -52 -245 -222z m909 -654 l656 -666 -2 -1132 -3
-1131 -1315 0 -1315 0 -3 1129 -2 1129 72 76 c183 191 1242 1261 1248 1261 4
0 303 -300 664 -666z m506 124 l0 -411 -294 299 -295 299 0 106 c-1 58 2 109
6 112 3 4 136 7 295 7 l288 0 0 -412z"/>
<path d="M3010 3095 c-238 -33 -423 -96 -585 -200 -121 -77 -239 -203 -296
-317 l-30 -59 -60 55 c-134 124 -399 206 -671 206 -72 0 -78 -2 -98 -27 -20
-25 -22 -36 -17 -103 3 -41 19 -130 36 -196 123 -482 354 -664 674 -531 26 11
50 18 52 15 2 -2 11 -80 20 -174 34 -367 37 -385 67 -407 38 -28 77 -15 101
34 17 35 17 43 -8 250 -23 202 -31 309 -21 309 3 0 33 -16 66 -36 190 -111
380 -131 529 -54 96 49 212 185 276 324 88 190 165 560 165 794 0 75 -2 85
-25 107 -27 28 -37 29 -175 10z m50 -206 c0 -17 -9 -91 -20 -165 -57 -368
-178 -636 -327 -716 -65 -36 -118 -43 -198 -28 -67 13 -211 79 -272 126 l-33
25 17 30 c10 17 47 59 83 93 56 54 79 68 165 101 178 68 357 166 410 224 27
31 25 84 -5 116 -13 14 -31 25 -40 25 -9 0 -55 -23 -101 -51 -114 -69 -167
-95 -273 -136 -114 -44 -161 -68 -209 -106 -21 -16 -40 -27 -43 -25 -2 3 14
41 36 85 83 166 234 288 450 365 72 26 264 67 318 67 40 1 42 0 42 -30z
m-1419 -309 c154 -29 273 -88 338 -167 29 -35 58 -99 49 -108 -2 -3 -44 16
-94 41 -93 47 -228 94 -269 94 -31 0 -65 -44 -65 -84 0 -53 22 -72 127 -107
131 -43 253 -105 253 -128 0 -13 -109 -62 -164 -73 -73 -16 -133 2 -195 58
-74 67 -158 240 -195 401 -24 109 -27 105 52 97 37 -3 110 -14 163 -24z"/>
</g>
</svg>
