<?xml version="1.0" standalone="no"?>
<!DOCTYPE svg PUBLIC "-//W3C//DTD SVG 20010904//EN"
 "http://www.w3.org/TR/2001/REC-SVG-20010904/DTD/svg10.dtd">
<svg version="1.0" xmlns="http://www.w3.org/2000/svg"
 width="612.000000pt" height="612.000000pt" viewBox="0 0 612.000000 612.000000"
 preserveAspectRatio="xMidYMid meet">

<g transform="translate(0.000000,612.000000) scale(0.100000,-0.100000)"
fill="#000000" stroke="none">
<path d="M2520 5278 c-5 -13 -30 -102 -55 -198 -24 -96 -61 -213 -81 -260 -20
-47 -40 -96 -45 -109 -10 -24 -10 -24 -63 28 -82 81 -90 74 -94 -79 l-3 -124
62 -62 61 -61 -61 -95 -61 -95 0 -102 c0 -137 7 -138 117 -30 70 69 84 79 79
57 -36 -157 -52 -248 -45 -259 6 -10 26 -13 68 -11 l59 3 22 -68 22 -68 -34
-172 c-19 -95 -32 -176 -29 -181 10 -15 249 -182 260 -182 6 0 50 25 98 55
l88 54 5 -97 5 -97 88 -43 87 -43 0 -188 c0 -139 -3 -191 -12 -198 -7 -6 -48
-24 -91 -40 l-79 -30 -91 33 c-51 19 -99 31 -108 29 -16 -6 -29 -78 -29 -167
0 -29 -11 -55 -46 -108 -35 -52 -44 -73 -36 -83 6 -7 43 -28 81 -47 39 -18 71
-38 71 -42 0 -5 -24 -51 -54 -101 -54 -92 -56 -93 -143 -142 -150 -83 -143
-75 -143 -159 0 -47 5 -77 13 -84 6 -5 104 -13 217 -16 l205 -7 95 -64 94 -64
46 26 c25 14 53 33 63 41 31 27 27 7 -9 -46 l-35 -52 -162 6 -163 7 -83 -104
c-117 -147 -305 -344 -406 -425 -47 -38 -85 -77 -85 -86 0 -27 22 -68 36 -68
7 0 25 5 39 12 23 10 29 8 58 -20 18 -18 39 -32 47 -32 8 0 41 28 74 63 39 40
87 76 132 100 63 32 81 37 141 37 l69 0 49 -50 c60 -61 80 -64 95 -12 5 20 21
75 34 122 l23 85 39 -1 c22 -1 82 -7 134 -14 87 -11 104 -11 200 8 174 35 480
89 745 132 138 22 259 42 270 45 13 3 44 45 87 117 76 128 81 139 70 154 -4 6
-59 23 -122 39 -63 15 -118 30 -123 32 -13 7 32 63 144 178 l107 110 26 157
c14 86 26 165 26 176 0 16 -28 32 -136 81 -74 33 -142 61 -151 61 -8 0 -46
-22 -84 -50 -73 -53 -85 -57 -113 -37 -16 12 -15 18 13 95 17 46 31 91 31 101
0 9 -31 43 -70 75 -38 31 -70 61 -70 67 0 5 16 9 35 9 23 0 38 6 42 16 3 9
-30 93 -79 197 l-84 182 -114 73 c-63 40 -122 78 -130 86 -9 7 -42 108 -74
227 -32 118 -64 224 -72 236 -23 37 -298 273 -317 273 -10 0 -28 -6 -40 -14
-12 -7 -47 -27 -77 -43 l-56 -31 -29 24 c-22 17 -25 24 -15 28 8 3 61 19 118
36 85 26 102 34 102 51 0 14 -13 26 -45 40 -25 11 -45 23 -44 27 0 4 34 32 75
62 l76 55 103 233 c57 129 102 239 99 245 -2 7 -39 36 -80 65 l-76 53 -229
-27 c-192 -23 -233 -25 -259 -14 -16 7 -30 15 -30 19 0 4 36 45 79 92 89 96
256 364 245 393 -8 20 -27 20 -189 -2 -124 -17 -135 -17 -245 0 -151 23 -159
23 -170 -4z m399 -62 c57 8 106 12 109 9 2 -2 -23 -49 -55 -105 -40 -66 -95
-138 -162 -210 -55 -61 -101 -114 -101 -118 1 -17 18 -31 75 -60 l61 -30 224
28 225 28 53 -34 c28 -19 52 -40 52 -47 0 -6 -39 -102 -87 -211 l-88 -199
-103 -76 c-112 -82 -123 -103 -67 -130 l30 -14 -80 -24 c-106 -31 -125 -40
-125 -57 0 -12 103 -110 137 -130 7 -3 51 14 98 40 47 25 91 44 98 41 6 -3 68
-56 137 -117 l125 -112 46 -166 c25 -92 53 -197 63 -234 17 -63 21 -69 70
-100 28 -17 87 -55 131 -84 l81 -51 67 -144 67 -144 -63 -5 c-54 -4 -62 -8
-65 -27 -3 -17 18 -40 98 -105 115 -94 111 -82 64 -211 -32 -88 -34 -82 53
-129 48 -26 54 -24 148 46 l61 44 108 -48 c59 -27 109 -50 111 -52 2 -2 -8
-68 -22 -148 l-24 -144 -99 -101 c-54 -55 -109 -113 -122 -130 -12 -16 -33
-41 -45 -55 -45 -49 -32 -60 120 -98 65 -17 120 -32 122 -34 2 -2 -20 -42 -48
-88 l-53 -85 -189 -32 c-365 -61 -561 -95 -738 -129 l-178 -35 -142 19 c-78
11 -147 17 -153 15 -6 -2 -16 -21 -22 -41 -6 -20 -20 -70 -32 -111 l-22 -74
-37 37 c-37 36 -37 36 -126 36 -85 0 -92 -2 -164 -41 -42 -23 -100 -64 -129
-92 l-52 -51 -33 32 -32 32 35 27 c58 43 265 261 362 381 l91 113 168 -7 167
-7 12 24 c7 12 47 75 88 138 41 63 75 121 76 129 1 8 -7 19 -16 25 -13 9 -38
-3 -132 -66 -64 -42 -120 -77 -126 -77 -6 0 -47 25 -93 55 l-82 54 -195 8
-195 8 -3 30 c-1 17 1 35 5 41 5 6 53 36 109 67 l100 56 72 121 c40 66 72 129
72 139 0 13 -23 30 -80 57 l-80 39 32 49 c27 41 34 63 39 123 3 40 9 76 12 79
3 4 41 -6 85 -21 l78 -28 105 42 c57 24 110 47 117 53 9 8 12 67 12 232 0 121
-4 226 -8 232 -4 6 -44 28 -89 49 l-82 38 -3 121 c-2 99 -6 121 -18 124 -9 1
-62 -27 -119 -63 -57 -37 -109 -64 -116 -61 -9 3 -160 107 -194 132 -1 1 12
77 30 168 l33 164 -22 79 c-34 115 -44 127 -98 118 -36 -5 -44 -3 -44 10 0 9
16 86 35 172 35 156 35 183 1 183 -6 0 -52 -42 -103 -92 l-93 -93 0 39 c0 30
14 60 65 141 36 56 65 107 65 114 0 6 -29 42 -65 79 -64 66 -65 67 -65 125 0
31 2 57 5 57 3 0 23 -16 45 -36 22 -20 47 -34 57 -32 12 2 35 46 75 141 49
118 77 208 139 448 l9 35 122 -17 c109 -15 134 -15 227 -3z"/>
<path d="M2149 5212 c-19 -15 -62 -50 -94 -79 l-58 -52 -2 -63 c-2 -51 -8 -72
-34 -114 -47 -75 -29 -98 59 -75 19 6 54 15 76 20 37 10 46 19 91 94 52 84 93
170 93 192 0 7 -12 33 -26 59 -31 55 -52 58 -105 18z m61 -78 c0 -28 -37 -106
-83 -174 -17 -25 -31 -46 -32 -47 -1 -2 -17 -6 -35 -9 l-33 -7 16 24 c11 15
17 43 17 80 l0 57 67 56 c36 30 70 53 75 50 4 -3 8 -16 8 -30z"/>
<path d="M1866 4708 c-34 -120 -66 -254 -66 -275 0 -28 37 -45 89 -41 35 3 37
6 68 83 27 66 32 94 32 160 l1 80 -35 23 c-56 36 -72 30 -89 -30z m43 -188
c-12 -33 -26 -63 -32 -67 -13 -8 -5 42 25 148 l23 84 3 -53 c2 -35 -4 -72 -19
-112z"/>
<path d="M1955 3554 c-27 -22 -36 -24 -86 -19 l-56 7 -36 -83 c-35 -83 -35
-83 -88 -101 -69 -23 -85 -39 -70 -66 17 -32 14 -38 -30 -51 -22 -7 -43 -19
-46 -28 -4 -10 11 -51 36 -99 l42 -82 62 -11 c155 -27 151 -27 183 13 16 20
32 36 35 36 4 0 21 -23 39 -50 18 -28 41 -55 51 -61 11 -5 65 -9 120 -8 l101
2 82 61 81 61 -1 56 c-2 80 -15 99 -69 99 -25 0 -45 2 -45 5 0 2 12 29 27 59
l26 54 -38 86 c-21 48 -44 91 -50 96 -11 9 -204 51 -230 50 -5 -1 -23 -12 -40
-26z m257 -129 c15 -33 28 -66 28 -73 0 -7 -13 -39 -30 -72 -48 -95 -41 -110
50 -110 43 0 48 -3 54 -26 8 -31 0 -42 -64 -89 -47 -34 -50 -35 -142 -35 l-95
0 -47 70 c-25 39 -52 70 -60 70 -8 0 -34 -22 -58 -50 l-43 -49 -50 9 c-90 17
-94 19 -115 60 -11 21 -20 43 -20 48 0 5 21 15 46 22 50 14 64 32 46 61 -19
30 -14 37 29 51 39 11 44 17 76 86 l33 73 43 -6 c36 -5 47 -2 76 23 l34 29 90
-17 91 -16 28 -59z"/>
</g>
</svg>
